<mxfile host="app.diagrams.net" modified="2020-09-07T20:43:21.680Z" agent="5.0 (Windows NT 10.0; Win64; x64) AppleWebKit/537.36 (KHTML, like Gecko) Chrome/85.0.4183.83 Safari/537.36" etag="LSLjX8_Ihh0Lw6HMCXrx" version="13.6.6" type="github">
  <diagram id="1O5y1ITAQIeMWpBPSLyi" name="Page-1">
    <mxGraphModel dx="1632" dy="437" grid="1" gridSize="10" guides="1" tooltips="1" connect="1" arrows="1" fold="1" page="1" pageScale="1" pageWidth="850" pageHeight="1100" math="0" shadow="0">
      <root>
        <mxCell id="0" />
        <mxCell id="1" parent="0" />
        <mxCell id="CLzo9ntLmay7FpYo34m9-8" value="" style="strokeWidth=1;shadow=0;dashed=0;align=center;shape=mxgraph.mockup.containers.browserWindow;rSize=0;strokeColor2=#008cff;strokeColor3=#c4c4c4;mainText=,;recursiveResize=0;labelBorderColor=#FFFFFF;html=1;" vertex="1" parent="1">
          <mxGeometry x="-370" y="110" width="700" height="450" as="geometry" />
        </mxCell>
        <mxCell id="CLzo9ntLmay7FpYo34m9-9" value="&lt;font style=&quot;font-size: 10px&quot;&gt;Буй Хонг Тьен М33091&lt;/font&gt;" style="strokeWidth=1;shadow=0;dashed=0;align=center;html=1;shape=mxgraph.mockup.containers.anchor;fontSize=17;fontColor=#666666;align=left;" vertex="1" parent="CLzo9ntLmay7FpYo34m9-8">
          <mxGeometry x="60" y="20" width="110" height="18" as="geometry" />
        </mxCell>
        <mxCell id="CLzo9ntLmay7FpYo34m9-10" value="https://localhost:3000" style="strokeWidth=1;shadow=0;dashed=0;align=center;html=1;shape=mxgraph.mockup.containers.anchor;rSize=0;fontSize=17;fontColor=#666666;align=left;" vertex="1" parent="CLzo9ntLmay7FpYo34m9-8">
          <mxGeometry x="130" y="60" width="250" height="26" as="geometry" />
        </mxCell>
        <mxCell id="CLzo9ntLmay7FpYo34m9-14" value="" style="whiteSpace=wrap;html=1;shadow=0;dashed=0;fontSize=10;align=center;strokeColor=#36393d;fillColor=#EEE4E8;" vertex="1" parent="CLzo9ntLmay7FpYo34m9-8">
          <mxGeometry x="1.2" y="110" width="698.8" height="50" as="geometry" />
        </mxCell>
        <mxCell id="CLzo9ntLmay7FpYo34m9-22" value="&lt;font color=&quot;#000000&quot;&gt;Footer&lt;/font&gt;" style="whiteSpace=wrap;html=1;shadow=0;dashed=0;fontSize=10;align=center;strokeColor=#B09500;fontColor=#ffffff;fillColor=#EEE4E8;" vertex="1" parent="CLzo9ntLmay7FpYo34m9-8">
          <mxGeometry x="1.2" y="423.12" width="698.8" height="26.88" as="geometry" />
        </mxCell>
        <mxCell id="CLzo9ntLmay7FpYo34m9-25" value="&lt;span style=&quot;background-color: rgb(238 , 228 , 232)&quot;&gt;My Week&lt;/span&gt;" style="shape=image;html=1;verticalAlign=top;verticalLabelPosition=bottom;labelBackgroundColor=#EEABB4;imageAspect=0;aspect=fixed;image=https://cdn3.iconfinder.com/data/icons/valentine-and-romance/64/12_date_calender_love_romance_wedding_valentine-128.png;sketch=1;strokeWidth=2;fillColor=#EEABB4;" vertex="1" parent="CLzo9ntLmay7FpYo34m9-8">
          <mxGeometry x="440" y="113" width="17" height="17" as="geometry" />
        </mxCell>
        <mxCell id="CLzo9ntLmay7FpYo34m9-26" value="&lt;span style=&quot;font-size: 12px ; background-color: rgb(238 , 228 , 232)&quot;&gt;&lt;font style=&quot;font-size: 12px&quot;&gt;Board List&lt;/font&gt;&lt;/span&gt;" style="shape=image;html=1;verticalAlign=top;verticalLabelPosition=bottom;labelBackgroundColor=#ffffff;imageAspect=0;aspect=fixed;image=https://cdn0.iconfinder.com/data/icons/business-management-3-4/256/m-12-128.png;sketch=1;strokeWidth=2;fillColor=#EEABB4;fontSize=12;" vertex="1" parent="CLzo9ntLmay7FpYo34m9-8">
          <mxGeometry x="248" y="117.5" width="14" height="14" as="geometry" />
        </mxCell>
        <mxCell id="CLzo9ntLmay7FpYo34m9-28" value="&lt;span style=&quot;background-color: rgb(238 , 228 , 232)&quot;&gt;Settings&lt;/span&gt;" style="shape=image;html=1;verticalAlign=top;verticalLabelPosition=bottom;labelBackgroundColor=#ffffff;imageAspect=0;aspect=fixed;image=https://cdn4.iconfinder.com/data/icons/web-essential-4/64/42-web_essential-128.png;sketch=1;strokeWidth=2;fillColor=#EEABB4;fontSize=12;" vertex="1" parent="CLzo9ntLmay7FpYo34m9-8">
          <mxGeometry x="630" y="116" width="17" height="17" as="geometry" />
        </mxCell>
        <mxCell id="CLzo9ntLmay7FpYo34m9-29" value="&lt;span style=&quot;background-color: rgb(238 , 228 , 232)&quot;&gt;My info&lt;/span&gt;" style="shape=image;html=1;verticalAlign=top;verticalLabelPosition=bottom;labelBackgroundColor=#ffffff;imageAspect=0;aspect=fixed;image=https://cdn1.iconfinder.com/data/icons/essential-21/128/User-128.png;sketch=1;strokeWidth=2;fillColor=#EEABB4;fontSize=12;" vertex="1" parent="CLzo9ntLmay7FpYo34m9-8">
          <mxGeometry x="60" y="114.5" width="14" height="14" as="geometry" />
        </mxCell>
        <mxCell id="CLzo9ntLmay7FpYo34m9-38" value="&lt;table border=&quot;1&quot; width=&quot;100%&quot; cellpadding=&quot;4&quot; style=&quot;width: 100% ; height: 100% ; border-collapse: collapse ; border: 1px solid rgb(255 , 255 , 255) ; background-color: rgb(238 , 228 , 232)&quot;&gt;&lt;tbody&gt;&lt;tr style=&quot;color: rgb(255 , 255 , 255)&quot;&gt;&lt;th style=&quot;background-color: rgb(255 , 255 , 255)&quot;&gt;&lt;font color=&quot;#000000&quot;&gt;This Week&lt;/font&gt;&lt;/th&gt;&lt;th style=&quot;background-color: rgb(255 , 255 , 255)&quot;&gt;&lt;font color=&quot;#000000&quot;&gt;Status&lt;/font&gt;&lt;/th&gt;&lt;th style=&quot;background-color: rgb(255 , 255 , 255)&quot;&gt;&lt;font color=&quot;#000000&quot;&gt;Timeline&lt;/font&gt;&lt;/th&gt;&lt;td style=&quot;background-color: rgb(255 , 255 , 255)&quot;&gt;&lt;font color=&quot;#000000&quot;&gt;&lt;b&gt;Raring&lt;/b&gt;&lt;/font&gt;&lt;/td&gt;&lt;td style=&quot;background-color: rgb(255 , 255 , 255)&quot;&gt;&lt;font color=&quot;#000000&quot;&gt;&lt;b&gt;Priority&lt;/b&gt;&lt;/font&gt;&lt;/td&gt;&lt;/tr&gt;&lt;tr&gt;&lt;td&gt;Read a book&lt;/td&gt;&lt;td style=&quot;background-color: rgb(0 , 150 , 0)&quot;&gt;&lt;font color=&quot;#ffffff&quot;&gt;Done&lt;/font&gt;&lt;/td&gt;&lt;td&gt;September 7-14&lt;/td&gt;&lt;td&gt;A&lt;/td&gt;&lt;td style=&quot;background-color: rgb(178 , 102 , 255)&quot;&gt;&lt;font color=&quot;#ffffff&quot;&gt;Medium&lt;/font&gt;&lt;/td&gt;&lt;/tr&gt;&lt;tr&gt;&lt;td&gt;Test Math&lt;/td&gt;&lt;td style=&quot;background-color: rgb(97 , 93 , 94)&quot;&gt;&lt;font color=&quot;#ffffff&quot;&gt;Break&lt;/font&gt;&lt;/td&gt;&lt;td&gt;September 8-10&lt;/td&gt;&lt;td style=&quot;border-collapse: collapse&quot;&gt;F&lt;/td&gt;&lt;td style=&quot;background-color: rgb(173 , 166 , 169)&quot;&gt;&lt;font color=&quot;#ffffff&quot;&gt;Low&lt;/font&gt;&lt;/td&gt;&lt;/tr&gt;&lt;tr&gt;&lt;td&gt;Online Course&lt;/td&gt;&lt;td style=&quot;background-color: rgb(0 , 127 , 255)&quot;&gt;&lt;font color=&quot;#ffffff&quot;&gt;Waiting for working&lt;/font&gt;&lt;/td&gt;&lt;td&gt;September 2-8&lt;/td&gt;&lt;td&gt;...&lt;/td&gt;&lt;td style=&quot;background-color: rgb(255 , 51 , 51)&quot;&gt;&lt;font color=&quot;#ffffff&quot;&gt;High&lt;/font&gt;&lt;/td&gt;&lt;/tr&gt;&lt;tr&gt;&lt;td&gt;Do lab web pro&lt;/td&gt;&lt;td style=&quot;background-color: rgb(255 , 128 , 0)&quot;&gt;&lt;font color=&quot;#ffffff&quot;&gt;Working on it&lt;/font&gt;&lt;/td&gt;&lt;td&gt;September 6-11&lt;/td&gt;&lt;td&gt;...&lt;/td&gt;&lt;td style=&quot;background-color: rgb(255 , 51 , 51)&quot;&gt;&lt;font color=&quot;#ffffff&quot;&gt;High&lt;/font&gt;&lt;/td&gt;&lt;/tr&gt;&lt;/tbody&gt;&lt;/table&gt;" style="text;html=1;strokeColor=#c0c0c0;fillColor=#ffffff;overflow=fill;rounded=0;labelBackgroundColor=#EEABB4;sketch=1;fontSize=12;spacing=2;verticalAlign=bottom;align=center;labelBorderColor=#FFFFFF;whiteSpace=wrap;" vertex="1" parent="CLzo9ntLmay7FpYo34m9-8">
          <mxGeometry x="0.5999999999999887" y="210" width="698.8" height="144" as="geometry" />
        </mxCell>
        <mxCell id="CLzo9ntLmay7FpYo34m9-127" value="My Plan" style="text;html=1;strokeColor=none;fillColor=none;align=center;verticalAlign=middle;whiteSpace=wrap;rounded=0;labelBackgroundColor=#FFFFFF;sketch=1;fontSize=19;fontStyle=1" vertex="1" parent="CLzo9ntLmay7FpYo34m9-8">
          <mxGeometry x="252.1" y="180" width="197" height="20" as="geometry" />
        </mxCell>
      </root>
    </mxGraphModel>
  </diagram>
</mxfile>
